<?xml version="1.0" encoding="UTF-8" standalone="no" ?>
<!DOCTYPE svg PUBLIC "-//W3C//DTD SVG 1.1//EN" "http://www.w3.org/Graphics/SVG/1.1/DTD/svg11.dtd">
<svg xmlns="http://www.w3.org/2000/svg" xmlns:xlink="http://www.w3.org/1999/xlink" version="1.1" width="500" height="500" viewBox="0 0 500 500" xml:space="preserve">
<desc>Created with Fabric.js 3.6.3</desc>
<defs>
</defs>
<g transform="matrix(0.5 0 0 0.5 315.97307114668126 232.00352789951262)" style=""  ><path fill="#000000" opacity="1" d="M-227.02 22.43L-233.44 22.43L-233.44-27.19L-223.37-27.19L-209.31 7.94L-194.74-27.19L-185.75-27.19L-185.75 22.43L-192.17 22.43L-192.17-19.05L-206.45 16.57L-212.59 16.57L-227.02-19.91L-227.02 22.43Z"/><path fill="#000000" opacity="1" d="M-139.27 18.00L-139.27 18.00Q-137.98 18.00-136.30 17.47Q-134.62 16.93-132.88 16.11Q-131.13 15.29-129.52 14.43Q-127.91 13.58-126.77 12.93L-126.77 12.93L-126.77 6.72L-140.12 6.72Q-141.26 6.72-142.26 7.19Q-143.26 7.65-143.98 8.40Q-144.69 9.15-145.12 10.18Q-145.55 11.22-145.55 12.29L-145.55 12.29Q-145.55 13.58-145.01 14.61Q-144.48 15.65-143.59 16.40Q-142.69 17.15-141.59 17.57Q-140.48 18.00-139.27 18.00ZM-135.05-14.41L-135.05-14.41Q-132.05-14.41-129.45-13.56Q-126.84-12.70-124.88-11.06Q-122.92-9.41-121.77-6.99Q-120.63-4.56-120.63-1.35L-120.63-1.35L-120.63 14.22Q-120.63 16.72-120.17 18.50Q-119.70 20.29-118.56 22.43L-118.56 22.43L-125.13 22.43Q-125.70 21.64-126.02 20.43Q-126.34 19.22-126.41 18.22L-126.41 18.22Q-129.34 20.36-132.88 21.82Q-136.41 23.29-140.05 23.29L-140.05 23.29Q-142.48 23.29-144.59 22.50Q-146.69 21.72-148.26 20.25Q-149.83 18.79-150.73 16.75Q-151.62 14.72-151.62 12.22L-151.62 12.22Q-151.62 9.86-150.69 7.90Q-149.76 5.94-148.19 4.51Q-146.62 3.08-144.55 2.29Q-142.48 1.51-140.19 1.51L-140.19 1.51L-126.77 1.51L-126.77-1.78Q-126.77-5.63-129.09-7.38Q-131.41-9.13-135.05-9.20L-135.05-9.20Q-138.34-9.20-140.69-8.42Q-143.05-7.63-145.83-5.99L-145.83-5.99L-148.48-10.56Q-146.76-11.56-145.23-12.27Q-143.69-12.98-142.09-13.48Q-140.48-13.98-138.77-14.20Q-137.05-14.41-135.05-14.41Z"/><path fill="#000000" opacity="1" d="M-84.29-27.19L-77.86-27.19L-77.86 16.57L-53.37 16.57L-55.16 22.43L-84.29 22.43L-84.29-27.19Z"/><path fill="#000000" opacity="1" d="M4.82 4.44L4.82 4.44L4.82 3.01Q4.82-2.20 2.11-5.49L2.11-5.49Q0.68-7.20-1.46-8.17Q-3.61-9.13-6.39-9.13L-6.39-9.13Q-9.10-9.13-11.17-8.24Q-13.24-7.34-14.67-5.70L-14.67-5.70Q-17.53-2.42-17.53 3.08L-17.53 3.08L-17.53 4.72Q-17.53 7.72-16.89 10.29Q-16.24 12.86-14.67 14.72L-14.67 14.72Q-13.39 16.29-11.35 17.15Q-9.32 18.00-6.39 18.00L-6.39 18.00Q-3.68 18.00-1.75 17.22Q0.18 16.43 1.54 15.00L1.54 15.00Q3.39 13.15 4.11 10.36Q4.82 7.58 4.82 4.44ZM5.96 18.15L5.96 18.15Q3.46 20.79 0.32 22.04Q-2.82 23.29-6.46 23.29L-6.46 23.29Q-9.96 23.29-13.17 22.00Q-16.39 20.72-18.89 18.15L-18.89 18.15Q-21.60 15.43-22.42 11.86Q-23.24 8.29-23.24 4.44L-23.24 4.44L-23.24 3.08Q-23.17-0.63-22.31-3.56Q-21.46-6.49-18.67-9.41L-18.67-9.41Q-16.17-11.99-13.10-13.20Q-10.03-14.41-6.46-14.41L-6.46-14.41Q-2.89-14.41 0.14-13.23Q3.18-12.06 5.68-9.56L5.68-9.56Q8.25-6.92 9.39-3.85Q10.53-0.78 10.53 2.94L10.53 2.94L10.53 4.44Q10.53 8.29 9.67 11.72Q8.82 15.15 5.96 18.15Z"/><path fill="#000000" opacity="1" d="M70.51-21.41L79.36-21.41L89.79 12.29L100.50-28.05L106.78-26.34L93.86 22.43L86.07 22.43L76.15-9.41L74.93-15.13L73.72-9.41L63.80 22.43L56.01 22.43L43.09-26.34L49.37-28.05L60.08 12.29L70.51-21.41Z"/><path fill="#000000" opacity="1" d="M172.68 6.01L145.69 6.01Q145.69 12.29 148.58 15.15Q151.48 18.00 157.33 18.00L157.33 18.00Q160.19 18.00 162.19 16.82Q164.18 15.65 165.76 13.58L165.76 13.58L171.18 15.79Q169.11 19.29 165.40 21.29Q161.69 23.29 156.97 23.29L156.97 23.29Q152.19 23.29 148.87 21.97Q145.55 20.64 143.48 18.25Q141.41 15.86 140.48 12.47Q139.55 9.08 139.55 4.94L139.55 4.94L139.55 4.15Q139.55 2.37 139.62 0.69Q139.69-0.99 140.05-2.63Q140.41-4.27 141.19-5.88Q141.98-7.49 143.41-9.06L143.41-9.06Q145.83-11.77 149.19-13.09Q152.55-14.41 156.12-14.41L156.12-14.41Q160.11-14.41 163.22-13.13Q166.33-11.84 168.43-9.56Q170.54-7.27 171.61-4.13Q172.68-0.99 172.68 2.79L172.68 2.79L172.68 6.01ZM145.69 0.37L145.69 1.01L166.54 1.01L166.54 0.37Q166.54-1.42 165.83-3.13Q165.11-4.85 163.76-6.17Q162.40-7.49 160.47-8.31Q158.54-9.13 156.12-9.13L156.12-9.13Q153.83-9.13 151.90-8.34Q149.98-7.56 148.58-6.24Q147.19-4.92 146.44-3.20Q145.69-1.49 145.69 0.37L145.69 0.37Z"/><path fill="#000000" opacity="1" d="M212.66-0.35L212.66-0.35L212.66 16.65Q214.24 17.36 216.09 17.68Q217.95 18.00 219.80 18.00L219.80 18.00Q221.38 18.00 222.84 17.79Q224.30 17.57 225.59 17.00L225.59 17.00Q227.16 16.36 228.23 15.18Q229.30 14.00 229.87 12.50Q230.44 11.01 230.69 9.33Q230.94 7.65 230.94 6.08L230.94 6.08L230.94 3.65Q230.94 1.30 230.69-0.56Q230.44-2.42 229.80-3.85L229.80-3.85Q228.94-5.77 227.12-7.09Q225.30-8.42 223.02-8.42L223.02-8.42Q220.88-8.42 219.13-7.77Q217.38-7.13 216.09-6.02Q214.81-4.92 213.95-3.45Q213.09-1.99 212.66-0.35ZM212.66-28.05L212.74-8.84L213.16-8.84Q215.38-11.56 217.88-12.63Q220.38-13.70 223.02-13.70L223.02-13.70Q226.45-13.70 229.69-11.84Q232.94-9.99 234.87-6.56L234.87-6.56Q236.23-4.20 236.66-1.60Q237.08 1.01 237.08 4.08L237.08 4.08L237.08 5.72Q237.08 14.79 232.80 19.04Q228.52 23.29 219.73 23.29L219.73 23.29Q216.09 23.29 212.74 22.61Q209.38 21.93 206.52 20.72L206.52 20.72L206.52-26.34L212.66-28.05Z"/></g><g transform="matrix(0.889397591232828 0 0 0.889397591232828 107.74633585052837 232.00352789951262)"  >
<path style="stroke: none; stroke-width: 0; stroke-dasharray: none; stroke-linecap: butt; stroke-dashoffset: 0; stroke-linejoin: miter; stroke-miterlimit: 4; fill: rgb(0,0,0); fill-rule: evenodd; opacity: 1;"  transform=" translate(-45, -25.400000000000002)" d="M 80 2.3 C 80 1 78.9 0 77.6 0 H 12.3 C 11 0 10 1 10 2.3 v 44.3 h 70 V 2.3 z M 44.6 0.8 c 0.7 0 1.2 0.6 1.2 1.3 c 0 0.7 -0.6 1.3 -1.2 1.3 c -0.7 0 -1.2 -0.6 -1.2 -1.3 C 43.3 1.4 43.9 0.8 44.6 0.8 z M 75.8 42.5 H 14.2 V 4.2 h 61.6 V 42.5 z M 52 47.5 c -0.1 0.6 -0.5 0.8 -1.1 0.8 H 39.1 c -0.6 0 -1 -0.2 -1.1 -0.8 H 0 v 1.6 c 0 0.9 6.3 1.7 14 1.7 h 62 c 7.7 0 14 -0.8 14 -1.7 v -1.6 H 52 z M 60.8 22.2 l -11.6 -4.9 v 3.2 l 8 3.1 l -8 3.1 v 3.2 l 11.6 -4.9 V 22.2 z M 43.2 32 c 0.3 0 0.5 -0.1 0.7 -0.2 c 0.2 -0.1 0.3 -0.3 0.4 -0.6 c 0.1 -0.2 0.2 -0.6 0.3 -1 l 3.1 -12.9 c 0.2 -0.6 0.2 -1 0.2 -1.3 c 0 -0.3 -0.1 -0.6 -0.3 -0.7 C 47.4 15 47.1 15 46.8 15 c -0.4 0 -0.7 0.1 -0.9 0.4 c -0.1 0.3 -0.3 0.7 -0.5 1.4 l -3.1 12.9 c -0.1 0.7 -0.2 1.1 -0.2 1.3 C 42.1 31.6 42.4 32 43.2 32 z M 40.8 26.6 l -8 -3.1 l 8 -3 v -3.2 l -11.7 4.9 v 2.7 l 11.7 4.9 V 26.6 z" stroke-linecap="round" />
</g>
<g transform="matrix(0 1.150930436517282 -1.150930436517282 0 178.2887307189452 230.44938283503416)"  >
<path style="stroke: none; stroke-width: 0; stroke-dasharray: none; stroke-linecap: butt; stroke-dashoffset: 0; stroke-linejoin: miter; stroke-miterlimit: 4; fill: rgb(0,0,0); fill-rule: nonzero; opacity: 1;"  transform=" translate(-49.95, -50)" d="M 91.7 49 H 8.3 c -0.6 0 -1 0.4 -1 1 s 0.4 1 1 1 h 83.3 c 0.6 0 1 -0.4 1 -1 S 92.2 49 91.7 49 z" stroke-linecap="round" />
</g>
</svg>